<svg xmlns="http://www.w3.org/2000/svg" version="1.1" xmlns:xlink="http://www.w3.org/1999/xlink" xmlns:svgjs="http://svgjs.com/svgjs" width="512.000000pt" height="512.000000pt"><svg version="1.0" xmlns="http://www.w3.org/2000/svg" width="512.000000pt" height="512.000000pt" viewBox="0 0 512.000000 512.000000" preserveAspectRatio="xMidYMid meet">

<g transform="translate(0.000000,512.000000) scale(0.100000,-0.100000)" fill="#000000" stroke="none">
<path d="M2340 5109 c-869 -75 -1647 -595 -2051 -1374 -376 -723 -382 -1590
-16 -2320 281 -561 779 -1015 1361 -1240 673 -260 1429 -224 2071 98 561 281
1015 779 1240 1361 320 828 191 1753 -343 2466 -524 698 -1389 1084 -2262
1009z m1090 -486 c0 -6 -411 -1318 -484 -1543 l-24 -75 -802 -388 c-441 -214
-804 -386 -807 -384 -5 6 412 1502 425 1525 6 12 1667 871 1685 872 4 0 7 -3
7 -7z m-824 -2579 c-123 -329 -222 -601 -221 -602 2 -2 436 199 965 448 529
248 963 450 965 448 2 -2 -79 -318 -179 -703 l-183 -700 -1491 -3 c-821 -1
-1492 2 -1492 6 0 12 187 653 191 656 2 2 255 99 562 217 l557 214 -342 3
-343 3 615 309 c338 169 616 307 618 306 1 -2 -99 -272 -222 -602z"></path>
</g>
</svg><style>@media (prefers-color-scheme: light) { :root { filter: none; } }
</style></svg>